<?xml version="1.0" encoding="UTF-8" standalone="no"?>
<!-- Created with Inkscape (http://www.inkscape.org/) -->

<svg
   xmlns:dc="http://purl.org/dc/elements/1.1/"
   xmlns:cc="http://creativecommons.org/ns#"
   xmlns:rdf="http://www.w3.org/1999/02/22-rdf-syntax-ns#"
   xmlns:svg="http://www.w3.org/2000/svg"
   xmlns="http://www.w3.org/2000/svg"
   xmlns:sodipodi="http://sodipodi.sourceforge.net/DTD/sodipodi-0.dtd"
   xmlns:inkscape="http://www.inkscape.org/namespaces/inkscape"
   width="27.250933mm"
   height="19.681677mm"
   viewBox="0 0 27.250933 19.681677"
   version="1.1"
   id="svg8"
   inkscape:version="0.92.5 (2060ec1f9f, 2020-04-08)"
   sodipodi:docname="other.svg">
  <defs
     id="defs2" />
  <sodipodi:namedview
     id="base"
     pagecolor="#ffffff"
     bordercolor="#666666"
     borderopacity="1.0"
     inkscape:pageopacity="0.0"
     inkscape:pageshadow="2"
     inkscape:zoom="3.2551127"
     inkscape:cx="81.443976"
     inkscape:cy="0.46849177"
     inkscape:document-units="mm"
     inkscape:current-layer="layer1"
     showgrid="false"
     showguides="true"
     inkscape:guide-bbox="true"
     inkscape:object-paths="true"
     inkscape:snap-global="false"
     inkscape:snap-intersection-paths="true"
     inkscape:object-nodes="true"
     inkscape:snap-smooth-nodes="true"
     inkscape:window-width="1208"
     inkscape:window-height="987"
     inkscape:window-x="1992"
     inkscape:window-y="0"
     inkscape:window-maximized="1"
     fit-margin-top="0"
     fit-margin-left="0"
     fit-margin-right="0"
     fit-margin-bottom="0"
     inkscape:snap-page="true" />
  <metadata
     id="metadata5">
    <rdf:RDF>
      <cc:Work
         rdf:about="">
        <dc:format>image/svg+xml</dc:format>
        <dc:type
           rdf:resource="http://purl.org/dc/dcmitype/StillImage" />
        <dc:title />
      </cc:Work>
    </rdf:RDF>
  </metadata>
  <g
     inkscape:label="Layer 1"
     inkscape:groupmode="layer"
     id="layer1"
     transform="translate(-98.822448,-132.90451)">
    <g
       id="g903"
       transform="matrix(0.00117721,0,0,-0.00117721,108.66503,150.28304)"
       style="fill:#000000;stroke:none">
      <path
         id="path897"
         d="m 6095,12794 c -27,-2 -115,-8 -195,-14 C 4030,12643 2289,11657 1185,10109 -320,7999 -397,5162 992,2977 1816,1681 3084,716 4540,276 5466,-3 6424,-71 7380,76 c 761,117 1520,381 2180,759 1230,704 2185,1777 2734,3070 866,2040 607,4403 -679,6204 -886,1241 -2181,2128 -3645,2496 -340,86 -633,135 -1005,171 -150,14 -756,27 -870,18 z m 547,-984 c 776,-36 1477,-217 2158,-556 560,-279 978,-580 1426,-1028 435,-435 743,-858 1008,-1386 325,-645 500,-1269 567,-2020 26,-288 14,-767 -27,-1095 -128,-1030 -548,-1992 -1224,-2805 -133,-160 -427,-458 -591,-601 -792,-688 -1757,-1133 -2774,-1278 -283,-41 -469,-53 -785,-53 -880,0 -1667,187 -2450,582 -738,373 -1398,931 -1901,1605 -552,742 -909,1630 -1023,2550 -55,438 -55,912 0,1350 115,926 471,1810 1031,2560 163,219 293,368 522,596 241,240 338,325 576,504 863,649 1910,1026 2980,1075 238,10 281,10 507,0 z"
         inkscape:connector-curvature="0" />
      <path
         id="path899"
         d="m 6240,10996 v -214 l -77,-6 c -431,-34 -740,-89 -1062,-191 -611,-193 -1123,-482 -1608,-908 l -130,-114 -155,148 -156,149 -110,-119 -111,-118 151,-151 152,-150 -75,-89 C 2395,8455 2022,7447 2020,6428 v -167 l -52,-5 c -29,-3 -125,-11 -213,-17 -88,-6 -161,-11 -162,-12 -4,-5 21,-313 26,-319 3,-4 96,0 205,8 110,8 205,13 213,10 7,-3 13,-20 13,-40 0,-63 60,-392 101,-552 80,-317 220,-686 361,-954 156,-298 322,-544 561,-831 82,-100 146,-184 140,-188 -25,-17 -313,-262 -313,-267 0,-11 204,-244 211,-242 4,2 169,138 365,303 197,165 364,305 372,310 11,9 -37,71 -233,305 -135,162 -281,344 -324,405 -372,523 -598,1102 -688,1765 -22,168 -26,712 -5,880 108,876 465,1631 1062,2244 627,643 1406,1026 2320,1138 66,8 223,13 420,13 197,0 354,-5 420,-13 755,-93 1397,-361 1980,-826 150,-120 433,-400 553,-547 423,-520 699,-1118 811,-1759 45,-260 51,-338 51,-680 -1,-280 -4,-347 -23,-481 -66,-466 -197,-882 -403,-1278 -151,-288 -279,-471 -609,-866 -192,-230 -239,-291 -228,-300 8,-5 175,-145 372,-310 196,-165 361,-301 365,-303 7,-2 211,231 211,242 0,5 -288,251 -314,268 -5,3 44,71 110,150 203,244 309,388 426,578 245,399 417,806 529,1253 42,166 99,481 99,543 0,20 6,37 13,40 8,3 103,-2 213,-10 109,-8 202,-12 205,-8 5,6 30,314 26,319 -1,1 -74,6 -162,12 -88,6 -183,14 -211,17 l -51,5 -6,247 c -11,459 -76,838 -217,1262 -183,555 -439,1011 -824,1468 l -70,84 152,150 151,151 -111,118 -110,119 -156,-149 -155,-148 -130,114 c -484,426 -997,715 -1608,908 -322,102 -631,157 -1061,191 l -78,6 v 214 214 h -160 -160 z"
         inkscape:connector-curvature="0" />
      <path
         id="path901"
         d="m 8385,8348 c -165,-138 -605,-505 -978,-816 l -679,-565 -56,27 c -31,15 -82,33 -112,41 -74,20 -246,19 -323,-1 -229,-59 -412,-243 -471,-472 -21,-80 -22,-229 -1,-317 8,-38 12,-71 7,-74 -5,-3 -151,-125 -326,-270 l -317,-264 98,-101 c 54,-56 156,-161 226,-233 70,-73 130,-133 132,-133 2,0 131,140 286,311 198,218 287,309 298,305 118,-37 270,-48 371,-26 193,43 359,175 445,355 52,107 65,166 65,285 0,103 -13,173 -47,249 l -23,54 23,26 c 121,131 1675,1850 1681,1859 4,7 6,12 4,11 -2,0 -138,-113 -303,-251 z"
         inkscape:connector-curvature="0" />
    </g>
  </g>
</svg>
