<?xml version="1.0" encoding="UTF-8" standalone="no"?>
<!-- Created with Inkscape (http://www.inkscape.org/) -->

<svg
   xmlns:dc="http://purl.org/dc/elements/1.1/"
   xmlns:cc="http://creativecommons.org/ns#"
   xmlns:rdf="http://www.w3.org/1999/02/22-rdf-syntax-ns#"
   xmlns:svg="http://www.w3.org/2000/svg"
   xmlns="http://www.w3.org/2000/svg"
   xmlns:sodipodi="http://sodipodi.sourceforge.net/DTD/sodipodi-0.dtd"
   xmlns:inkscape="http://www.inkscape.org/namespaces/inkscape"
   width="27.250933mm"
   height="19.681677mm"
   viewBox="0 0 27.250933 19.681677"
   version="1.1"
   id="svg8"
   inkscape:version="0.92.5 (2060ec1f9f, 2020-04-08)"
   sodipodi:docname="radio.svg">
  <defs
     id="defs2" />
  <sodipodi:namedview
     id="base"
     pagecolor="#ffffff"
     bordercolor="#666666"
     borderopacity="1.0"
     inkscape:pageopacity="0.0"
     inkscape:pageshadow="2"
     inkscape:zoom="4"
     inkscape:cx="121.00554"
     inkscape:cy="20.322127"
     inkscape:document-units="mm"
     inkscape:current-layer="layer1"
     showgrid="false"
     showguides="true"
     inkscape:guide-bbox="true"
     inkscape:object-paths="true"
     inkscape:snap-global="true"
     inkscape:snap-intersection-paths="true"
     inkscape:object-nodes="true"
     inkscape:snap-smooth-nodes="true"
     inkscape:window-width="1848"
     inkscape:window-height="1016"
     inkscape:window-x="72"
     inkscape:window-y="27"
     inkscape:window-maximized="1"
     fit-margin-top="0"
     fit-margin-left="0"
     fit-margin-right="0"
     fit-margin-bottom="0"
     inkscape:snap-page="true"
     inkscape:snap-bbox="true"
     inkscape:bbox-paths="true"
     inkscape:bbox-nodes="true"
     inkscape:snap-bbox-edge-midpoints="true"
     inkscape:snap-object-midpoints="true" />
  <metadata
     id="metadata5">
    <rdf:RDF>
      <cc:Work
         rdf:about="">
        <dc:format>image/svg+xml</dc:format>
        <dc:type
           rdf:resource="http://purl.org/dc/dcmitype/StillImage" />
        <dc:title></dc:title>
      </cc:Work>
    </rdf:RDF>
  </metadata>
  <g
     inkscape:label="Layer 1"
     inkscape:groupmode="layer"
     id="layer1"
     transform="translate(-98.822448,-132.90451)">
    <path
       style="opacity:1;fill:#000000;fill-opacity:1;fill-rule:nonzero;stroke:none;stroke-width:0.02;stroke-linecap:butt;stroke-linejoin:miter;stroke-miterlimit:4;stroke-dasharray:none;stroke-dashoffset:0;stroke-opacity:1;paint-order:normal"
       id="path867"
       sodipodi:type="arc"
       sodipodi:cx="116.39525"
       sodipodi:cy="142.67258"
       sodipodi:rx="0.57183063"
       sodipodi:ry="0.52089846"
       sodipodi:start="0"
       sodipodi:end="6.2675821"
       sodipodi:open="true"
       d="m 116.96708,142.67258 a 0.57183063,0.52089846 0 0 1 -0.5696,0.52089 0.57183063,0.52089846 0 0 1 -0.57404,-0.51683 0.57183063,0.52089846 0 0 1 0.56512,-0.52493 0.57183063,0.52089846 0 0 1 0.57845,0.51274" />
    <path
       style="opacity:1;fill:none;fill-opacity:1;fill-rule:nonzero;stroke:#000000;stroke-width:1.32283461;stroke-linecap:butt;stroke-linejoin:miter;stroke-miterlimit:4;stroke-dasharray:none;stroke-dashoffset:0;stroke-opacity:1;paint-order:normal"
       d="M 62.438219 42.275402 A 7.0999969 6.4676095 0 0 1 59.317102 36.969135 A 7.0999969 6.4676095 0 0 1 62.442188 31.559508 "
       id="path1138"
       transform="matrix(0.26458333,0,0,0.26458333,98.822448,132.90451)" />
    <path
       style="opacity:1;fill:none;fill-opacity:1;fill-rule:nonzero;stroke:#000000;stroke-width:2.43990064;stroke-linecap:butt;stroke-linejoin:miter;stroke-miterlimit:4;stroke-dasharray:none;stroke-dashoffset:0;stroke-opacity:1;paint-order:normal"
       d="M 59.038567 46.877317 A 13.095581 11.929174 0 0 1 53.318183 37.112668 A 13.095581 11.929174 0 0 1 59.136907 27.101431 "
       id="path1121"
       transform="matrix(0.26458333,0,0,0.26458333,98.822448,132.90451)" />
    <path
       style="opacity:1;fill:none;fill-opacity:1;fill-rule:nonzero;stroke:#000000;stroke-width:3.91312242;stroke-linecap:butt;stroke-linejoin:miter;stroke-miterlimit:4;stroke-dasharray:none;stroke-dashoffset:0;stroke-opacity:1;paint-order:normal"
       d="M 54.604233 52.84455 A 21.002747 19.132058 0 0 1 45.405491 37.168862 A 21.002747 19.132058 0 0 1 54.710238 21.129475 "
       id="path1112"
       transform="matrix(0.26458333,0,0,0.26458333,98.822448,132.90451)" />
    <path
       style="opacity:1;fill:none;fill-opacity:1;fill-rule:nonzero;stroke:#000000;stroke-width:5.6692915;stroke-linecap:butt;stroke-linejoin:miter;stroke-miterlimit:4;stroke-dasharray:none;stroke-dashoffset:0;stroke-opacity:1;paint-order:normal"
       d="M 49.400866 59.847053 A 30.551796 27.830584 0 0 1 35.847187 36.938218 A 30.551796 27.830584 0 0 1 49.210826 13.711988 "
       id="path1103"
       transform="matrix(0.26458333,0,0,0.26458333,98.822448,132.90451)" />
    <path
       style="fill:#000000;fill-rule:evenodd;stroke:none;stroke-width:0.26458332px;stroke-linecap:butt;stroke-linejoin:miter;stroke-opacity:1;fill-opacity:1;opacity:1"
       d="m 115.8552,149.98381 0.30539,-6.84375 h 0.46932 l 0.30538,6.84375 z"
       id="path865"
       inkscape:connector-curvature="0" />
    <path
       inkscape:connector-curvature="0"
       style="opacity:1;fill:none;fill-opacity:1;fill-rule:nonzero;stroke:#000000;stroke-width:0.34999999;stroke-linecap:butt;stroke-linejoin:miter;stroke-miterlimit:4;stroke-dasharray:none;stroke-dashoffset:0;stroke-opacity:1;paint-order:normal"
       d="m 117.44793,144.08986 a 1.8785381,1.7112218 0 0 0 0.8258,-1.40395 1.8785381,1.7112218 0 0 0 -0.82685,-1.43129"
       id="path1138-9" />
    <path
       inkscape:connector-curvature="0"
       style="opacity:1;fill:none;fill-opacity:1;fill-rule:nonzero;stroke:#000000;stroke-width:0.64555705;stroke-linecap:butt;stroke-linejoin:miter;stroke-miterlimit:4;stroke-dasharray:none;stroke-dashoffset:0;stroke-opacity:1;paint-order:normal"
       d="m 118.34742,145.30745 a 3.4648676,3.1562607 0 0 0 1.51352,-2.58356 3.4648676,3.1562607 0 0 0 -1.53954,-2.64881"
       id="path1121-3" />
    <path
       inkscape:connector-curvature="0"
       style="opacity:1;fill:none;fill-opacity:1;fill-rule:nonzero;stroke:#000000;stroke-width:1.03534698;stroke-linecap:butt;stroke-linejoin:miter;stroke-miterlimit:4;stroke-dasharray:none;stroke-dashoffset:0;stroke-opacity:1;paint-order:normal"
       d="m 119.52067,146.88628 a 5.5569689,5.0620239 0 0 0 2.43384,-4.14752 5.5569689,5.0620239 0 0 0 -2.46188,-4.24376"
       id="path1112-6" />
    <path
       inkscape:connector-curvature="0"
       style="opacity:1;fill:none;fill-opacity:1;fill-rule:nonzero;stroke:#000000;stroke-width:1.5;stroke-linecap:butt;stroke-linejoin:miter;stroke-miterlimit:4;stroke-dasharray:none;stroke-dashoffset:0;stroke-opacity:1;paint-order:normal"
       d="m 120.8974,148.73903 a 8.0834845,7.363509 0 0 0 3.58607,-6.0613 8.0834845,7.363509 0 0 0 -3.53579,-6.14527"
       id="path1103-0" />
  </g>
</svg>
