<?xml version="1.0" encoding="UTF-8" standalone="no"?>
<!-- Created with Inkscape (http://www.inkscape.org/) -->

<svg
   xmlns:dc="http://purl.org/dc/elements/1.1/"
   xmlns:cc="http://creativecommons.org/ns#"
   xmlns:rdf="http://www.w3.org/1999/02/22-rdf-syntax-ns#"
   xmlns:svg="http://www.w3.org/2000/svg"
   xmlns="http://www.w3.org/2000/svg"
   xmlns:sodipodi="http://sodipodi.sourceforge.net/DTD/sodipodi-0.dtd"
   xmlns:inkscape="http://www.inkscape.org/namespaces/inkscape"
   width="27.250933mm"
   height="19.681677mm"
   viewBox="0 0 27.250933 19.681677"
   version="1.1"
   id="svg8"
   inkscape:version="0.92.5 (2060ec1f9f, 2020-04-08)"
   sodipodi:docname="tmp.svg">
  <defs
     id="defs2" />
  <sodipodi:namedview
     id="base"
     pagecolor="#ffffff"
     bordercolor="#666666"
     borderopacity="1.0"
     inkscape:pageopacity="0.0"
     inkscape:pageshadow="2"
     inkscape:zoom="4.2097798"
     inkscape:cx="22.970237"
     inkscape:cy="25.502103"
     inkscape:document-units="mm"
     inkscape:current-layer="layer1"
     showgrid="false"
     showguides="true"
     inkscape:guide-bbox="true"
     inkscape:object-paths="true"
     inkscape:snap-global="true"
     inkscape:snap-intersection-paths="true"
     inkscape:object-nodes="true"
     inkscape:snap-smooth-nodes="true"
     inkscape:window-width="1848"
     inkscape:window-height="1016"
     inkscape:window-x="72"
     inkscape:window-y="27"
     inkscape:window-maximized="1"
     fit-margin-top="0"
     fit-margin-left="0"
     fit-margin-right="0"
     fit-margin-bottom="0"
     inkscape:snap-page="true"
     inkscape:snap-bbox="true"
     inkscape:bbox-paths="true"
     inkscape:bbox-nodes="true" />
  <metadata
     id="metadata5">
    <rdf:RDF>
      <cc:Work
         rdf:about="">
        <dc:format>image/svg+xml</dc:format>
        <dc:type
           rdf:resource="http://purl.org/dc/dcmitype/StillImage" />
        <dc:title></dc:title>
      </cc:Work>
    </rdf:RDF>
  </metadata>
  <g
     inkscape:label="Layer 1"
     inkscape:groupmode="layer"
     id="layer1"
     transform="translate(-98.822448,-132.90451)">
    <g
       transform="matrix(0.0661714,0,0,0.0661714,109.02104,133.16543)"
       id="layer1-3"
       inkscape:label="Layer 1">
      <g
         transform="matrix(0.26458333,0,0,0.26458333,-23.231429,12.478721)"
         id="g821">
        <g
           transform="matrix(0.1,0,0,-0.1,0,512)"
           id="g819">
          <path
             style="fill:#000000;fill-opacity:1"
             inkscape:connector-curvature="0"
             d="m 2228.8,5009.6 c -21.1,-9.6 -59.5,-40.3 -86.3,-69 l -47.9,-51.8 -5.8,-466 -5.8,-466 -224.4,-7.7 c -195.6,-7.7 -237.8,-15.3 -324.1,-59.4 -143.8,-74.8 -220.5,-149.6 -293.4,-285.8 -61.4,-113.1 -65.2,-134.2 -72.9,-345.2 l -7.7,-224.4 -467.9,-5.8 -467.9,-5.8 -61.4,-63.3 c -53.7,-53.7 -63.3,-74.8 -63.3,-157.3 0,-82.5 9.6,-103.6 63.3,-157.3 l 61.4,-63.3 469.9,-5.7 469.9,-5.8 v -304.9 -304.9 l -469.9,-5.8 -469.9,-5.7 -61.4,-63.3 c -53.7,-53.7 -63.3,-74.8 -63.3,-157.3 0,-82.5 9.6,-103.6 63.3,-157.3 l 61.4,-63.3 469.9,-5.7 469.9,-5.8 V 1191.1 886.3 L 694.6,880.5 224.7,874.8 163.3,811.5 C 109.6,757.8 100,736.7 100,654.2 c 0,-82.5 9.6,-103.6 63.3,-157.3 l 61.4,-63.3 469.9,-5.7 469.9,-5.8 V 117.3 -187.6 l -469.9,-5.8 -469.9,-5.7 -61.4,-63.3 c -53.7,-53.7 -63.3,-74.8 -63.3,-157.3 0,-82.5 9.6,-103.6 63.3,-157.3 l 61.4,-63.3 469.9,-5.8 469.9,-5.8 v -304.9 -304.9 l -469.9,-5.7 -469.9,-5.8 -61.4,-63.3 c -53.7,-53.7 -63.3,-74.8 -63.3,-157.3 0,-82.5 9.6,-103.6 63.3,-157.3 l 61.4,-63.3 469.9,-5.7 469.9,-5.8 v -304.9 -304.9 l -469.9,-5.8 -469.9,-5.7 -61.4,-63.3 c -53.7,-53.7 -63.3,-74.8 -63.3,-157.3 0,-82.5 9.6,-103.6 63.3,-157.3 l 61.4,-63.3 467.9,-5.8 467.9,-5.7 7.7,-224.4 c 7.7,-211 11.5,-232.1 72.9,-345.2 74.8,-141.9 159.2,-220.5 306.9,-289.6 88.2,-40.3 140,-49.8 320.3,-55.6 l 214.8,-7.7 5.8,-467.9 5.8,-468 63.3,-61.4 c 53.7,-53.7 74.8,-63.3 157.3,-63.3 82.5,0 103.6,9.6 157.3,63.3 l 63.3,61.4 5.8,469.9 5.8,469.9 h 304.9 304.6 l 5.8,-469.9 5.7,-469.9 63.3,-61.4 c 53.7,-53.7 74.8,-63.3 157.3,-63.3 82.5,0 103.6,9.6 157.3,63.3 l 63.3,61.4 5.7,469.9 5.8,469.9 h 304.8 305 l 5.8,-469.9 5.8,-469.9 63.3,-61.4 c 53.7,-53.7 74.8,-63.3 157.3,-63.3 82.5,0 103.6,9.6 157.3,63.3 l 63.3,61.4 5.8,469.9 5.8,469.9 h 304.6 304.9 l 5.7,-469.9 5.8,-469.9 63.3,-61.4 c 53.7,-53.7 74.8,-63.3 157.3,-63.3 82.5,0 103.6,9.6 157.3,63.3 l 63.3,61.4 5.7,469.9 5.8,469.9 h 304.9 304.9 l 5.8,-469.9 5.7,-469.9 63.3,-61.4 c 53.7,-53.7 74.8,-63.3 157.3,-63.3 82.5,0 103.6,9.6 157.3,63.3 l 63.3,61.4 5.8,469.9 5.8,469.9 h 304.9 304.9 l 5.7,-469.9 5.8,-469.9 63.3,-61.4 c 53.7,-53.7 74.8,-63.3 157.3,-63.3 82.5,0 103.6,9.6 157.3,63.3 l 63.3,61.4 5.8,468 5.8,467.9 214.8,5.8 c 197.5,7.7 226.3,13.4 343.3,71 145.8,71 230.1,159.2 301.1,310.7 40.3,88.2 49.9,140 55.6,320.3 l 7.7,214.8 467.9,5.7 467.9,5.8 61.4,63.3 c 53.7,53.7 63.3,74.8 63.3,157.3 0,82.5 -9.6,103.6 -63.3,157.3 l -61.4,63.3 -469.9,5.7 -469.9,5.8 v 304.9 304.9 l 469.9,5.8 469.9,5.7 61.4,63.3 c 53.7,53.7 63.3,74.8 63.3,157.3 0,82.5 -9.6,103.6 -63.3,157.3 l -61.4,63.3 -469.9,5.8 -469.9,5.7 v 304.9 304.9 l 469.9,5.8 469.9,5.8 61.4,63.3 c 53.7,53.7 63.3,74.8 63.3,157.3 0,82.5 -9.6,103.5 -63.3,157.3 l -61.4,63.3 -469.9,5.7 -469.9,5.8 v 304.9 304.9 l 469.9,5.8 469.9,5.7 61.4,63.3 c 53.7,53.7 63.3,74.8 63.3,157.3 0,82.5 -9.6,103.6 -63.3,157.3 l -61.4,63.3 -469.9,5.7 -469.9,5.8 v 304.9 304.9 l 469.9,5.8 469.9,5.7 61.4,63.3 c 53.7,53.7 63.3,74.8 63.3,157.3 0,82.5 -9.6,103.6 -63.3,157.3 l -61.4,63.3 -469.9,5.7 -469.9,5.8 v 304.9 304.9 l 469.9,5.8 469.9,5.7 61.4,63.3 c 53.7,53.7 63.3,74.8 63.3,157.3 0,82.5 -9.6,103.6 -63.3,157.3 l -61.4,63.3 -467.9,5.8 -467.9,5.8 -7.7,214.8 c -5.8,180.3 -15.3,232.1 -55.6,320.3 -69.1,147.7 -147.7,232.1 -289.6,306.9 -113.1,61.4 -134.2,65.2 -345.2,72.9 l -224.4,7.7 -5.8,467.9 -5.8,467.9 -63.3,61.4 c -53.7,53.7 -74.8,63.3 -157.3,63.3 -82.5,0 -103.6,-9.6 -157.3,-63.3 l -63.3,-61.4 -5.8,-469.9 -5.7,-469.9 H 7148.1 6843 l -5.8,469.9 -5.8,469.9 -63.3,61.4 c -53.7,53.7 -74.8,63.3 -157.3,63.3 -82.5,0 -103.6,-9.6 -157.3,-63.3 l -63.3,-61.4 -5.7,-469.9 -5.8,-469.9 H 6074 5769 l -5.8,469.9 -5.7,469.9 -63.3,61.4 c -53.7,53.7 -74.8,63.3 -157.3,63.3 -82.5,0 -103.6,-9.6 -157.3,-63.3 l -63.3,-61.4 -5.8,-469.9 -5.7,-469.9 H 5000 4695.1 l -5.8,469.9 -5.8,469.9 -63.3,61.4 c -53.7,53.7 -74.8,63.3 -157.3,63.3 -82.5,0 -103.6,-9.6 -157.3,-63.3 l -63.3,-61.4 -5.8,-469.9 -5.8,-469.9 H 3926 3621.1 l -5.8,469.9 -5.7,469.9 -63.3,61.4 c -53.7,53.7 -74.8,63.3 -157.3,63.3 -82.5,0 -103.6,-9.6 -157.3,-63.3 l -63.3,-61.4 -5.7,-469.9 -5.8,-469.9 H 2852 2547.1 l -5.8,469.9 -5.8,469.9 -59.5,59.5 c -63.1,62.9 -176.3,87.8 -247.2,57.1 z M 4156.2,2648.8 v -383.6 h -600.3 c -583,0 -602.2,-1.9 -684.7,-42.2 -57.5,-28.8 -101.6,-71 -128.5,-120.8 -42.2,-74.8 -44.1,-94 -44.1,-607.9 V 961.1 h -306.8 -306.9 v 1035.6 1035.6 h 1035.6 1035.6 v -383.5 z m 1380.8,57.5 c 0,-247.4 -7.7,-341.4 -26.9,-379.7 -15.3,-28.8 -272.3,-295.4 -571.5,-594.5 l -542.7,-540.8 -115.1,40.3 c -291.5,103.6 -617.5,-34.5 -757.5,-318.4 -67.1,-138.1 -67.1,-379.7 0,-517.8 59.5,-122.7 174.5,-237.8 297.3,-297.2 138.1,-67.1 379.7,-67.1 517.8,0 122.7,59.4 237.8,174.5 297.3,297.2 61.4,126.6 67.1,362.5 11.5,485.2 l -36.4,82.5 575.3,579.2 c 700,703.8 657.8,631 657.8,1144.9 v 345.2 h 537 537 V 2267.2 1502 l -444.9,-7.7 -446.8,-5.7 -105.5,-55.6 c -71,-36.4 -195.6,-143.8 -387.4,-335.6 -349,-347.1 -366.3,-379.7 -374,-692.3 -3.8,-120.8 -11.5,-241.7 -17.3,-268.5 -11.5,-53.7 -429.6,-487.1 -510.1,-529.3 -42.2,-23 -260.8,-26.8 -1300.3,-26.8 H 2084.9 v 535 537 l 362.5,5.8 c 397,5.7 414.2,11.5 508.2,138.1 38.4,49.9 40.3,82.5 46,607.9 l 5.8,554.2 h 619.4 c 611.8,0 621.4,0 682.7,44.1 141.9,95.9 143.8,101.7 149.6,590.7 l 5.8,439.2 h 537 535.1 z m 2378.1,-2589 v -2915 h -345.2 -345.2 v 537 c 0,667.4 0,671.2 -249.3,928.2 -92.1,95.9 -176.4,193.7 -189.9,216.7 -13.4,24.9 -21.1,153.4 -21.1,337.5 V -483 l 128.5,65.2 c 448.8,228.2 435.3,866.8 -23,1091.2 -138.1,67.1 -379.7,67.1 -517.8,0 C 5893.7,449 5880.3,-181.9 6327.2,-417.8 l 130.4,-69 v -310.7 c 0,-412.3 19.2,-464.1 249.3,-703.8 92.1,-95.9 176.4,-193.7 189.9,-216.7 13.4,-28.8 21.1,-209.1 21.1,-560 v -519.7 H 4501.4 2084.9 v 345.2 345.2 H 2737 c 780.6,0 782.5,0 1004.9,211 74.8,71 155.3,138.1 178.4,151.5 26.8,13.4 180.3,21.1 450.7,21.1 h 408.5 l 69,-130.4 c 187.9,-356.7 634.8,-435.3 951.2,-168.8 30.7,26.9 86.3,101.7 122.7,168.8 59.5,111.2 65.2,134.3 65.2,283.8 0,134.2 -9.6,180.3 -47.9,258.9 -224.4,458.3 -855.3,471.8 -1091.2,24.9 l -69,-130.4 h -425.8 c -525.5,0 -569.6,-11.5 -780.5,-211 -74.8,-71 -155.3,-138.1 -178.4,-151.5 -28.8,-13.4 -235.9,-21.1 -675.1,-21.1 h -634.8 v 537 537 h 1265.8 c 1242.7,0 1265.8,0 1375.1,40.3 95.9,36.4 147.7,76.7 381.6,312.6 329.9,327.9 352.9,374 352.9,694.2 0,130.4 9.6,222.5 26.9,262.7 34.5,78.6 521.6,561.9 592.6,588.8 32.6,11.5 234,19.2 491,19.2 421.9,0 439.2,1.9 500.5,44.1 34.5,23 82.5,67.1 103.6,95.9 38.4,53.7 40.3,76.7 46,878.4 l 5.7,822.7 h 343.3 345.2 z m -3714.8,817 c 197.5,-82.5 245.5,-339.5 92.1,-492.9 -124.7,-124.7 -301.1,-124.7 -425.8,0 -237.8,235.9 24.9,623.3 333.7,492.9 z m 2531.5,-537 c 197.5,-82.5 245.5,-339.5 92.1,-492.9 -124.7,-124.7 -301.1,-124.7 -425.7,0 -237.9,235.9 24.8,623.3 333.6,492.9 z M 5504.4,-1290.4 c 197.5,-82.5 245.5,-339.5 92.1,-492.9 -124.6,-124.7 -301.1,-124.7 -425.7,0 -237.9,235.9 24.8,623.3 333.6,492.9 z"
             id="path817" />
        </g>
      </g>
    </g>
  </g>
</svg>
